<?xml version="1.0" encoding="utf-8"?>
<!-- Generator: Adobe Illustrator 15.0.0, SVG Export Plug-In . SVG Version: 6.00 Build 0)  -->
<!DOCTYPE svg PUBLIC "-//W3C//DTD SVG 1.1//EN" "http://www.w3.org/Graphics/SVG/1.1/DTD/svg11.dtd">
<svg version="1.1" id="Capa_1" xmlns="http://www.w3.org/2000/svg" xmlns:xlink="http://www.w3.org/1999/xlink" x="0px" y="0px"
	 width="600px" height="600px" viewBox="0 0 600 600" enable-background="new 0 0 600 600" xml:space="preserve">
<g>
	<circle fill="#D86D50" cx="300" cy="300" r="250"/>
	<g>
		<path fill="#40424F" d="M390.674,322.512h-4.403v-0.002h-24.049l1.847,10.864h10.297h11.905h4.403c3.002,0,5.436-2.427,5.436-5.43
			C396.109,324.943,393.676,322.512,390.674,322.512z"/>
		<path fill="#40424F" d="M228.624,480.07c-0.726,4.277,2.151,8.333,6.426,9.059c4.274,0.725,8.33-2.146,9.057-6.422l2.689-15.832
			l-15.479-2.632L228.624,480.07z"/>
		<path fill="#40424F" d="M364.063,333.374l-1.847-10.864l-18.56-109.122c-0.097-0.578-0.405-1.045-0.796-1.427
			c0-0.001,0.001-0.002,0.001-0.003c3.292-6.511,5.189-13.847,5.189-21.641c0.005-19.221-11.285-35.797-27.591-43.484
			c-3.762-1.772-7.791-3.073-12.012-3.822v-23.795c0-4.675-3.787-8.461-8.46-8.461v62.298c2.384,0,4.651,0.484,6.719,1.355
			c1.032,0.438,2.014,0.973,2.932,1.592c4.59,3.103,7.608,8.355,7.608,14.312c0,0,0,0,0,0.002c0,9.535-7.726,17.262-17.259,17.262
			v10.526v20.278c4.146,0,8.171-0.526,12.009-1.514c-3.839,0.989-7.863,1.515-12.012,1.515v-20.275v-10.526
			c-2.979,0-5.78-0.755-8.226-2.083c-5.382-2.924-9.037-8.623-9.037-15.18c0-0.002,0-0.002,0-0.002
			c0.002-5.959,3.022-11.209,7.614-14.314c0.918-0.62,1.899-1.155,2.933-1.592c2.062-0.871,4.333-1.355,6.716-1.355v-62.298
			c-4.671,0-8.459,3.787-8.459,8.461v23.795c-22.503,4-39.601,23.652-39.601,47.307c0,7.795,1.898,15.132,5.189,21.644
			c2.461,4.864,5.735,9.241,9.621,12.984c-3.885-3.743-7.161-8.118-9.622-12.982c-0.39,0.379-0.699,0.846-0.797,1.424
			L237.761,322.51v0.002l-24.051-0.002v0.005h-4.404c-3.002,0-5.43,2.429-5.43,5.433c0,3,2.427,5.43,5.43,5.43h4.404h11.906h10.297
			l-17.519,103.029c-0.049,0.278-0.051,0.555-0.011,0.83l3.354,23.494c0.168,1.146,1.053,2.061,2.204,2.258l7.376,1.252
			l15.479,2.635l1.901-11.191c0.32-1.865-0.08-3.67-0.951-5.193c-1.229,0.247-2.499,0.381-3.8,0.381
			c1.302-0.002,2.571-0.134,3.8-0.381c8.768-1.762,15.375-9.506,15.375-18.791c0-10.591-8.584-19.172-19.175-19.172
			c0.001,0,0.001,0,0.001,0c10.589,0,19.175,8.581,19.175,19.172c0,9.289-6.608,17.029-15.375,18.791
			c0.871,1.526,1.271,3.328,0.952,5.193l-1.901,11.191l5.697,0.967c0.148,0.024,0.301,0.037,0.451,0.037
			c0.986,0,1.906-0.545,2.372-1.441l10.932-21.064c0.128-0.246,0.214-0.508,0.26-0.785l18.914-111.214h8.811v7.19
			c0,3.181,2.577,5.752,5.752,5.754v-0.005h0.003c3.179,0,5.752-2.571,5.752-5.752v-7.19h8.812v0.003l18.913,111.216
			c0.049,0.278,0.134,0.537,0.261,0.786l10.938,21.064c0.461,0.898,1.383,1.44,2.369,1.44c0.146,0,0.299-0.015,0.447-0.037
			l5.694-0.967l0.007-0.002l2.695,15.835c0.726,4.272,4.781,7.151,9.051,6.423c4.275-0.725,7.157-4.779,6.426-9.057l-2.692-15.83
			l7.376-1.258c1.146-0.193,2.038-1.108,2.206-2.256l3.353-23.494c0.043-0.277,0.039-0.554-0.008-0.832L364.063,333.374z
			 M235.403,448.846c0.505,0.251,1.033,0.463,1.562,0.674c-0.529-0.208-1.056-0.423-1.561-0.674
			c-0.836-0.418-1.635-0.896-2.396-1.429C233.77,447.947,234.568,448.428,235.403,448.846c1.74-1.746,4.263-2.662,6.875-2.215
			C239.666,446.187,237.143,447.1,235.403,448.846z M305.741,322.51v-7.188c0-3.179-2.573-5.752-5.752-5.752h-0.003v0.002
			c-3.175,0-5.752,2.571-5.752,5.75v7.188h-6.965l12.717-74.788l12.718,74.786L305.741,322.51z M336.953,429.797
			c-0.062,0.625-0.097,1.258-0.097,1.9l0,0c0-0.643,0.034-1.277,0.097-1.904C336.953,429.795,336.953,429.795,336.953,429.797z
			 M338.602,423.742c0.017-0.039,0.036-0.072,0.053-0.111c-0.012,0.026-0.025,0.051-0.036,0.075
			C338.612,423.719,338.605,423.73,338.602,423.742z M339.959,421.262c-0.134,0.205-0.256,0.416-0.379,0.625
			c0.127-0.217,0.253-0.432,0.389-0.642C339.965,421.25,339.962,421.258,339.959,421.262z M341.005,419.81
			c-0.103,0.13-0.199,0.267-0.298,0.397c0.104-0.139,0.203-0.28,0.311-0.414C341.014,419.797,341.01,419.805,341.005,419.81z
			 M341.513,419.197c0.127-0.146,0.26-0.289,0.392-0.43c-0.126,0.137-0.253,0.271-0.375,0.41
			C341.524,419.185,341.519,419.189,341.513,419.197z M343.476,417.229c-0.195,0.172-0.385,0.345-0.573,0.521
			c0.194-0.181,0.39-0.361,0.592-0.537C343.487,417.219,343.481,417.225,343.476,417.229z M344.887,416.118
			c-0.135,0.095-0.264,0.198-0.396,0.296c0.138-0.104,0.273-0.211,0.412-0.311C344.897,416.108,344.893,416.113,344.887,416.118z
			 M345.538,415.662c0.257-0.169,0.521-0.322,0.785-0.477c-0.261,0.151-0.522,0.305-0.775,0.471
			C345.545,415.656,345.541,415.659,345.538,415.662z M348.025,414.295c-0.314,0.144-0.629,0.287-0.934,0.449
			c-0.002,0-0.003,0.002-0.006,0.002c0.312-0.164,0.633-0.312,0.953-0.459C348.035,414.289,348.029,414.292,348.025,414.295z
			 M348.722,413.977c0.265-0.109,0.538-0.202,0.81-0.297c-0.271,0.095-0.542,0.188-0.806,0.295
			C348.725,413.975,348.723,413.975,348.722,413.977z M351.63,413.055c-0.4,0.092-0.801,0.186-1.19,0.305c-0.001,0-0.001,0-0.002,0
			c0.395-0.119,0.801-0.215,1.205-0.311C351.64,413.052,351.635,413.052,351.63,413.055z M352.578,450.542
			c1.123,0.202,2.271,0.327,3.453,0.327C354.85,450.869,353.701,450.747,352.578,450.542z M359.84,412.908
			c-0.606-0.123-1.223-0.221-1.848-0.283c0.626,0.062,1.242,0.16,1.85,0.283C359.84,412.908,359.84,412.908,359.84,412.908z
			 M361.622,413.359c-0.39-0.119-0.79-0.213-1.19-0.305c-0.006-0.003-0.012-0.006-0.018-0.006c0.407,0.096,0.815,0.191,1.212,0.311
			C361.625,413.359,361.623,413.359,361.622,413.359z M362.295,413.594c0.161,0.057,0.318,0.117,0.479,0.176
			c-0.155-0.057-0.305-0.115-0.46-0.168C362.309,413.599,362.301,413.596,362.295,413.594z M364.969,414.741
			c-0.202-0.104-0.41-0.2-0.617-0.298c0.21,0.1,0.422,0.195,0.625,0.303C364.975,414.744,364.971,414.744,364.969,414.741z
			 M366.514,415.654c-0.167-0.109-0.341-0.207-0.513-0.311c0.176,0.105,0.353,0.205,0.523,0.318
			C366.521,415.659,366.518,415.656,366.514,415.654z M367.158,416.104c0.079,0.059,0.156,0.119,0.235,0.176
			c-0.071-0.051-0.142-0.107-0.215-0.158C367.172,416.113,367.166,416.108,367.158,416.104z M368.588,417.231
			c-0.006-0.007-0.013-0.013-0.019-0.017c0.2,0.173,0.396,0.354,0.589,0.534C368.971,417.573,368.781,417.4,368.588,417.231z
			 M370.533,419.18c-0.211-0.244-0.427-0.483-0.65-0.715c-0.005-0.008-0.01-0.013-0.016-0.02c0.234,0.244,0.461,0.495,0.682,0.752
			C370.545,419.189,370.538,419.185,370.533,419.18z M371.64,420.588c-0.096-0.134-0.196-0.264-0.294-0.393
			c0.102,0.137,0.209,0.273,0.31,0.412C371.65,420.601,371.645,420.596,371.64,420.588z M373.448,423.716
			c-0.05-0.112-0.106-0.22-0.157-0.329c0.055,0.119,0.116,0.236,0.171,0.355C373.458,423.732,373.453,423.723,373.448,423.716z
			 M374.135,425.425c-0.106-0.308-0.215-0.615-0.336-0.918c0.125,0.312,0.236,0.628,0.347,0.944
			C374.142,425.444,374.139,425.435,374.135,425.425z M375.023,429.188c-0.021-0.162-0.052-0.32-0.073-0.481
			c0.022,0.169,0.055,0.335,0.077,0.503C375.025,429.201,375.024,429.194,375.023,429.188z M375.206,431.697
			c0-0.643-0.034-1.277-0.097-1.902v-0.002C375.172,430.42,375.206,431.055,375.206,431.697L375.206,431.697z"/>
	</g>
	<g>
		<path fill="none" d="M299.998,247.722v61.849H300c3.179,0,5.752,2.573,5.752,5.752v7.188h6.968L300,247.709L299.998,247.722z"/>
		<path fill="none" d="M317.26,190.317c0-9.534-7.73-17.264-17.26-17.264v34.525C309.533,207.579,317.26,199.849,317.26,190.317z"/>
		<path fill="#40424F" d="M390.685,322.514h-4.403v-0.003h-24.049l1.848,10.863h10.296h11.905h4.403c3.002,0,5.437-2.427,5.437-5.43
			C396.121,324.945,393.687,322.514,390.685,322.514z"/>
		<path fill="#40424F" d="M305.752,322.511v-7.188c0-3.179-2.573-5.752-5.752-5.752h-0.002v36.744H300
			c3.179,0,5.752-2.572,5.752-5.752v-7.191h8.818l-1.85-10.862L305.752,322.511L305.752,322.511z"/>
		<path fill="#40424F" d="M355.888,482.711c0.726,4.272,4.781,7.15,9.052,6.424c4.274-0.727,7.156-4.781,6.426-9.059l-2.693-15.829
			l-15.479,2.629L355.888,482.711z"/>
		<path fill="#F0F0CB" d="M381.6,436.407l-17.525-103.033l-1.847-10.863l-18.56-109.122c-0.096-0.579-0.405-1.046-0.797-1.428
			c-5.121,10.119-13.672,18.204-24.169,22.646c-5.751,2.43-12.071,3.776-18.707,3.776h-0.002v9.339l0.002-0.013l12.72,74.802
			l1.85,10.863l18.912,111.216c0.049,0.278,0.135,0.537,0.262,0.786l10.938,21.065c0.46,0.897,1.383,1.44,2.369,1.44
			c0.145,0,0.298-0.016,0.446-0.036l5.694-0.969l15.48-2.629l7.383-1.259c1.145-0.194,2.037-1.109,2.205-2.257l3.353-23.494
			C381.649,436.961,381.646,436.685,381.6,436.407z M364.584,448.844c-2.574,1.285-5.469,2.025-8.541,2.025
			c-1.301,0-2.566-0.131-3.796-0.379c-8.77-1.76-15.38-9.505-15.38-18.793c0-10.592,8.586-19.17,19.176-19.17
			c10.588,0,19.174,8.578,19.174,19.17C375.217,439.214,370.88,445.701,364.584,448.844z"/>
		<path fill="#C2C63D" d="M357.714,446.631c2.609-0.441,5.132,0.471,6.87,2.215c6.296-3.145,10.633-9.631,10.633-17.146
			c0-10.592-8.586-19.172-19.174-19.172c-10.59,0-19.176,8.58-19.176,19.172c0,9.288,6.61,17.031,15.38,18.794
			C353.375,448.527,355.307,447.043,357.714,446.631z"/>
		<path fill="#C2C63D" d="M364.584,448.844c-1.738-1.744-4.261-2.656-6.87-2.213c-2.407,0.41-4.339,1.896-5.467,3.859
			c1.229,0.246,2.495,0.379,3.796,0.379C359.115,450.869,362.01,450.129,364.584,448.844z"/>
		<path opacity="0.39" fill="#C2C63D" enable-background="new    " d="M356.043,412.527c-10.59,0-19.176,8.58-19.176,19.172
			c0,9.288,6.61,17.031,15.38,18.794c0-0.003,0.001-0.003,0.001-0.003c1.229,0.246,2.494,0.379,3.795,0.379
			c3.072,0,5.967-0.74,8.539-2.025c0,0.002,0.002,0.002,0.002,0.002c6.296-3.145,10.633-9.631,10.633-17.146
			C375.217,421.108,366.631,412.527,356.043,412.527z"/>
		<rect x="299.998" y="173.054" fill="none" width="0.002" height="34.525"/>
		<path fill="#40424F" d="M317.26,190.317L317.26,190.317c0-5.96-3.02-11.212-7.609-14.315c-0.915-0.619-1.898-1.154-2.932-1.592
			c-2.066-0.871-4.335-1.355-6.719-1.355C309.529,173.054,317.26,180.784,317.26,190.317z"/>
		<rect x="299.998" y="110.755" fill="#40424F" width="0.002" height="62.299"/>
		<path fill="#40424F" d="M306.719,174.41c1.033,0.439,2.014,0.973,2.932,1.592C308.732,175.383,307.752,174.848,306.719,174.41z"/>
		<path fill="#40424F" d="M317.26,190.317c0-0.002,0-0.002,0-0.002c0-5.958-3.02-11.209-7.609-14.313
			C314.24,179.106,317.26,184.357,317.26,190.317z"/>
		<rect x="299.998" y="207.579" fill="#40424F" width="0.002" height="10.526"/>
		<path fill="#40424F" d="M318.707,234.606c-5.75,2.43-12.071,3.776-18.707,3.776C306.636,238.384,312.957,237.036,318.707,234.606z
			"/>
		<rect x="299.998" y="218.106" fill="#40424F" width="0.002" height="20.278"/>
		<path opacity="0.14" fill="#40424F" enable-background="new    " d="M300,207.579c9.533,0,17.26-7.726,17.26-17.261l0,0
			C317.26,199.849,309.533,207.579,300,207.579z"/>
		<path opacity="0.14" fill="#40424F" enable-background="new    " d="M348.062,190.317c0,7.795-1.899,15.13-5.189,21.641
			c0,0,0,0.001,0.003,0.001c3.294-6.51,5.191-13.849,5.191-21.646c0-19.219-11.29-35.797-27.595-43.482
			C336.777,154.521,348.067,171.096,348.062,190.317z"/>
		<path fill="#F0F0CB" d="M318.707,234.606c10.497-4.44,19.048-12.526,24.169-22.646c-0.003,0-0.003-0.001-0.003-0.001
			C337.755,222.079,329.204,230.166,318.707,234.606z"/>
		<path opacity="0.14" fill="#40424F" enable-background="new    " d="M318.707,234.606c10.497-4.44,19.048-12.526,24.169-22.646
			c-0.003,0-0.003-0.001-0.003-0.001C337.755,222.079,329.204,230.166,318.707,234.606z"/>
		<path fill="#40424F" d="M317.26,190.317L317.26,190.317L317.26,190.317z"/>
		<path opacity="0.14" fill="#40424F" enable-background="new    " d="M317.26,190.317L317.26,190.317L317.26,190.317z"/>
		<path fill="#40424F" d="M320.473,146.833c-3.763-1.772-7.792-3.073-12.012-3.822v-23.795c0-4.675-3.788-8.461-8.461-8.461v62.299
			c2.384,0,4.652,0.484,6.719,1.355c1.033,0.439,2.014,0.973,2.932,1.592c4.59,3.103,7.609,8.355,7.609,14.312c0,0,0,0,0,0.003
			c0,9.535-7.727,17.261-17.26,17.261v10.526v20.278c6.636,0,12.957-1.346,18.707-3.776c10.497-4.44,19.048-12.527,24.166-22.646
			c3.293-6.511,5.189-13.847,5.189-21.641C348.067,171.096,336.777,154.521,320.473,146.833z"/>
		<path opacity="0.36" fill="#D86D50" enable-background="new    " d="M282.736,190.317L282.736,190.317
			c0,6.557,3.653,12.256,9.036,15.18C286.39,202.574,282.736,196.873,282.736,190.317z"/>
		<path fill="#363845" d="M213.721,322.511v0.004h-4.405c-3.002,0-5.43,2.431-5.43,5.433c0,3,2.427,5.43,5.43,5.43h4.405h11.906
			h10.299l1.847-10.863L213.721,322.511L213.721,322.511z"/>
		<path fill="#363845" d="M294.245,315.322v7.188h-6.965l-1.849,10.863h8.813v7.191c0,3.18,2.577,5.751,5.752,5.753v-36.746
			C296.822,309.572,294.245,312.144,294.245,315.322z"/>
		<path fill="#363845" d="M228.635,480.072c-0.726,4.275,2.151,8.331,6.426,9.058c4.274,0.724,8.33-2.146,9.056-6.421l2.69-15.834
			l-15.479-2.632L228.635,480.072z"/>
		<path fill="#E6E6C1" d="M295.085,238.135c-16.644-1.689-30.737-11.896-37.96-26.169c-0.39,0.379-0.699,0.846-0.797,1.424
			l-18.555,109.121l-1.847,10.86l-17.519,103.036c-0.049,0.277-0.051,0.554-0.012,0.83l3.353,23.494
			c0.169,1.147,1.054,2.061,2.205,2.257l7.376,1.254l15.479,2.633l1.901-11.191c0.319-1.865-0.08-3.67-0.951-5.193
			c-1.229,0.248-2.499,0.381-3.8,0.381c-3.073,0-5.967-0.742-8.542-2.024c-6.296-3.146-10.631-9.63-10.631-17.147
			c0-10.591,8.586-19.172,19.175-19.172c10.59,0,19.175,8.581,19.175,19.172c0,9.289-6.607,17.029-15.375,18.791
			c0.871,1.526,1.271,3.328,0.953,5.193l-1.901,11.191l5.697,0.967c0.148,0.024,0.3,0.038,0.451,0.038
			c0.986,0,1.906-0.546,2.371-1.44l10.932-21.066c0.128-0.246,0.213-0.508,0.26-0.785l18.913-111.217h-0.002l1.849-10.86
			l12.717-74.789v-9.339C298.34,238.384,296.701,238.301,295.085,238.135z"/>
		<path fill="#40424F" d="M251.938,190.317c0-23.655,17.098-43.308,39.601-47.307c-22.506,4-39.606,23.652-39.606,47.307
			c0,7.798,1.897,15.135,5.192,21.646c0.001,0,0.001-0.002,0.001-0.002C253.833,205.451,251.938,198.113,251.938,190.317z"/>
		<path opacity="0.36" fill="#D86D50" enable-background="new    " d="M251.938,190.317c0-23.655,17.098-43.308,39.601-47.307
			c-22.506,4-39.606,23.652-39.606,47.307c0,7.798,1.897,15.135,5.192,21.646c0.001,0,0.001-0.002,0.001-0.002
			C253.833,205.451,251.938,198.113,251.938,190.317z"/>
		<path fill="#40424F" d="M295.085,238.134c-16.644-1.689-30.737-11.896-37.958-26.173c0,0,0,0.002-0.001,0.002
			C264.348,226.238,278.441,236.444,295.085,238.134z"/>
		<path opacity="0.36" fill="#D86D50" enable-background="new    " d="M295.085,238.134c-16.644-1.689-30.737-11.896-37.958-26.173
			c0,0,0,0.002-0.001,0.002C264.348,226.238,278.441,236.444,295.085,238.134z"/>
		<path fill="#363845" d="M290.349,176.002c0.918-0.619,1.9-1.154,2.933-1.592c2.063-0.871,4.333-1.355,6.716-1.355v-62.298
			c-4.671,0-8.459,3.787-8.459,8.461v23.795c-22.503,4-39.601,23.652-39.601,47.307c0,7.795,1.897,15.132,5.189,21.644
			c7.221,14.277,21.315,24.483,37.958,26.172c1.616,0.167,3.255,0.249,4.913,0.249v-20.277v-10.526c-2.979,0-5.78-0.755-8.226-2.083
			c-5.382-2.923-9.037-8.623-9.037-15.18c0-0.002,0-0.002,0-0.002C282.736,184.357,285.756,179.106,290.349,176.002z"/>
		<path fill="#40424F" d="M290.349,176.002c-4.592,3.104-7.612,8.355-7.612,14.313c0,0,0,0,0,0.002
			C282.736,184.357,285.756,179.106,290.349,176.002z"/>
		<path opacity="0.36" fill="#D86D50" enable-background="new    " d="M290.349,176.002c-4.592,3.104-7.612,8.355-7.612,14.313
			c0,0,0,0,0,0.002C282.736,184.357,285.756,179.106,290.349,176.002z"/>
		<path fill="#40424F" d="M290.349,176.002c0.918-0.619,1.9-1.154,2.933-1.592C292.249,174.848,291.267,175.383,290.349,176.002z"/>
		<path opacity="0.36" fill="#D86D50" enable-background="new    " d="M290.349,176.002c0.918-0.619,1.9-1.154,2.933-1.592
			C292.249,174.848,291.267,175.383,290.349,176.002z"/>
		<path fill="#B8BC33" d="M243.958,412.527c-10.589,0-19.175,8.58-19.175,19.172c0,7.516,4.334,14.002,10.631,17.146
			c1.74-1.746,4.263-2.66,6.875-2.215c-2.612-0.443-5.135,0.469-6.875,2.215c2.575,1.283,5.47,2.025,8.543,2.025
			c1.301-0.002,2.571-0.133,3.8-0.381c8.769-1.762,15.375-9.505,15.375-18.791C263.132,421.108,254.548,412.527,243.958,412.527z"/>
	</g>
</g>
</svg>
